<?xml version="1.0" encoding="utf-8"?>
<!-- Generator: Adobe Illustrator 22.0.1, SVG Export Plug-In . SVG Version: 6.00 Build 0)  -->
<svg version="1.1" id="Layer_1" xmlns="http://www.w3.org/2000/svg" xmlns:xlink="http://www.w3.org/1999/xlink" x="0px" y="0px"
	 viewBox="0 0 64 64" style="enable-background:new 0 0 64 64;" xml:space="preserve">
<path d="M62.7,16.6c-0.7-2.8-2.9-4.9-5.7-5.7c-5-1.3-25-1.3-25-1.3s-20,0-25,1.3c-2.8,0.7-4.9,2.9-5.7,5.7C0,21.6,0,32,0,32
	s0,10.4,1.3,15.4c0.7,2.8,2.9,4.9,5.7,5.7c5,1.3,25,1.3,25,1.3s20,0,25-1.3c2.8-0.7,4.9-2.9,5.7-5.7C64,42.4,64,32,64,32
	S64,21.6,62.7,16.6z M25.6,41.6V22.4L42.2,32L25.6,41.6z"/>
</svg>
